<svg xmlns="http://www.w3.org/2000/svg" viewBox="12139.5 -1303.116 196.5 36.923">
  <defs>
    <style>
      .cls-1 {
        fill: #2dbdb6;
      }

      .cls-2 {
        fill: #ed1164;
      }
    </style>
  </defs>
  <g id="group-11" transform="translate(11950.721 -1320.423)">
    <g id="group-10" transform="translate(188.78 17.307)">
      <g id="group" transform="translate(134.857 31.137)">
        <rect id="rectangle" class="cls-1" width="61.117" height="5.786"/>
      </g>
      <g id="group-2" data-name="group" transform="translate(0 0)">
        <path id="path" class="cls-2" d="M52.7,30.12V5.4h5.891c6,0,12.518.736,12.518,8.521,0,4.944-3.787,8.31-9.573,8.31a12.888,12.888,0,0,1-1.893-.105v8.1H52.7Zm6.943-13.465H60.8c1.788,0,3.366-.736,3.366-2.945,0-1.788-1.052-2.735-3.577-2.735h-.947Z" transform="translate(-52.7 -4.769)"/>
        <path id="path-2" data-name="path" class="cls-2" d="M80.043,20.763V30.02H73.1V5.405S76.466,5.3,80.148,5.3c6.206,0,11.15,1.157,11.15,6.943a6.9,6.9,0,0,1-4.523,6.732,4.658,4.658,0,0,1,1.788,2.1c1.367,2.84,4,9.047,4,9.047H85.092l-4-9.362Zm.947-9.993h-.947v5.154s.105.105.736.105c1.578,0,3.471-.316,3.471-2.63C84.356,11.612,83.3,10.77,80.989,10.77Z" transform="translate(-51.641 -4.774)"/>
        <path id="path-3" data-name="path" class="cls-2" d="M93.8,5.4h14.832v5.786h-7.784v3.682H107.9v5.575h-7.048v4h7.784v5.786H93.8Z" transform="translate(-50.566 -4.769)"/>
        <path id="path-4" data-name="path" class="cls-2" d="M122.785,13.531c0-2-.947-2.945-2.314-2.945s-2.314.842-2.419,2.63c-.105,2.419-.105,6.1,0,8.836.105,1.893.947,2.84,2.314,2.84,1.262,0,2.525-.947,2.525-2.945l6.417.21c0,5.049-3.471,8.521-9.152,8.521-5.26,0-9.047-3.051-9.152-8.31q-.158-5.68,0-9.467c.21-5.365,4.628-8.1,9.362-8.1,4.839,0,8.941,2.735,8.731,8.521Z" transform="translate(-49.677 -4.8)"/>
        <path id="path-5" data-name="path" class="cls-2" d="M138.243,30.12H131.3V5.4h6.943Z" transform="translate(-48.619 -4.769)"/>
        <path id="path-6" data-name="path" class="cls-2" d="M153.056,23.414c0-1.052-.947-1.893-4.734-3.156C144.746,19.1,141.8,17,141.8,12.684c0-5.26,4.313-7.784,9.047-7.784s8.941,2.525,8.731,8.521l-6.417.21c0-2.1-.842-2.945-2.314-2.945-1.052,0-2,.526-2,1.578,0,1.262.736,1.893,4.734,3.261,3.787,1.368,6.522,3.051,6.522,7.784,0,4.628-3.892,7.469-9.047,7.469-4.944,0-9.573-2.63-9.257-8.521l6.417-.21c0,2.209,1.262,2.945,2.84,2.945C152.215,24.887,153.056,24.466,153.056,23.414Z" transform="translate(-48.074 -4.795)"/>
        <path id="path-7" data-name="path" class="cls-2" d="M173.67,25.7h-5.891l-.841,4.313H160.1l5.575-23.248V5.4h10.309l5.68,24.72h-7.153Zm-4.839-5.575h3.787l-1.368-7.363-.526-3.156-.526,3.156Z" transform="translate(-47.123 -4.769)"/>
      </g>
      <g id="group-3" data-name="group" transform="translate(136.104 0.105)">
        <path id="path-8" data-name="path" class="cls-1" d="M193.356,23.414c0-1.052-.947-1.893-4.734-3.156C185.046,19.1,182.1,17,182.1,12.684c0-5.26,4.313-7.784,9.047-7.784s8.941,2.525,8.731,8.521l-6.417.21c0-2.1-.841-2.945-2.314-2.945-1.052,0-2,.526-2,1.578,0,1.262.736,1.893,4.734,3.261,3.787,1.368,6.522,3.051,6.522,7.784,0,4.628-3.892,7.469-9.046,7.469-4.944,0-9.573-2.63-9.257-8.521l6.417-.21c0,2.209,1.262,2.945,2.84,2.945C192.62,24.887,193.356,24.466,193.356,23.414Z" transform="translate(-182.085 -4.9)"/>
        <path id="path-9" data-name="path" class="cls-1" d="M202.8,5.4h14.832v5.786h-7.784v3.682H216.9v5.575h-7.048v4h7.784v5.786H202.8Z" transform="translate(-181.01 -4.874)"/>
        <path id="path-10" data-name="path" class="cls-1" d="M227.943,20.763V30.02H221V5.405s3.366-.105,7.048-.105c6.206,0,11.15,1.157,11.15,6.943a6.9,6.9,0,0,1-4.523,6.732,4.658,4.658,0,0,1,1.788,2.1c1.367,2.84,4,9.047,4,9.047h-7.469L229.1,20.868h-1.157Zm.947-9.993h-.947v5.154s.105.105.736.105c1.578,0,3.471-.316,3.471-2.63C232.15,11.612,231.2,10.77,228.889,10.77Z" transform="translate(-180.065 -4.879)"/>
      </g>
    </g>
  </g>
</svg>
