<svg xmlns="http://www.w3.org/2000/svg" viewBox="12728.807 2368.833 140.193 32.734">
  <defs>
    <style>
      .cls-1 {
        fill: #231f20;
      }

      .cls-2 {
        fill: #ff4136;
      }
    </style>
  </defs>
  <g id="Logo-OSC-15" transform="translate(12716.906 2356.033)">
    <g id="Group_6395" data-name="Group 6395" transform="translate(11.9 12.8)">
      <g id="Group_6392" data-name="Group 6392">
        <g id="Group_6391" data-name="Group 6391">
          <path id="Path_2998" data-name="Path 2998" class="cls-1" d="M11.9,37.629l.079-17.122c.04-4.569,3.059-7.707,7.469-7.707,4.33,0,7.389,3.178,7.389,7.747l-.079,17.122c0,4.529-3.1,7.667-7.469,7.667C14.879,45.336,11.9,42.158,11.9,37.629Zm5.641-17.36-.079,17.559c0,1.907,1.033,2.145,1.827,2.145.755,0,1.827-.2,1.827-2.105L21.2,20.308c0-1.907-.953-2.145-1.788-2.145C18.534,18.163,17.541,18.362,17.541,20.269Z" transform="translate(-11.9 -12.8)"/>
          <path id="Path_2999" data-name="Path 2999" class="cls-1" d="M75.257,20.269l-5.482-.04c0-1.708-1.033-2.145-1.827-2.145a1.529,1.529,0,0,0-1.669,1.629,6.51,6.51,0,0,0,1.311,3.138l5.442,8.1c2.145,3.258,2.5,5.125,2.5,7.469,0,4.29-3.138,6.992-7.588,6.992A7.226,7.226,0,0,1,60.4,37.748l5.562.04c0,1.867,1.152,2.225,2.105,2.225A1.715,1.715,0,0,0,69.973,38.3c0-.993-.159-1.629-1.39-3.456L63.1,26.625c-2.145-3.258-2.423-5.2-2.423-7.071,0-4.132,3.059-6.753,7.349-6.753A7.1,7.1,0,0,1,75.257,20.269Z" transform="translate(-41.132 -12.8)"/>
          <path id="Path_3000" data-name="Path 3000" class="cls-1" d="M118.636,20.608c0-1.907-1.033-2.145-1.788-2.145-.795,0-1.867.2-1.867,2.105l-.079,17.6c0,1.947.993,2.145,1.827,2.145.874,0,1.827-.159,1.827-2.105V35.9l5.6.04v2.105c0,4.529-3.1,7.667-7.469,7.667s-7.389-3.178-7.389-7.707l.079-17.241c.04-4.529,3.059-7.667,7.469-7.667,4.33,0,7.389,3.178,7.389,7.707v1.986l-5.6-.04Z" transform="translate(-70.607 -12.981)"/>
        </g>
      </g>
      <g id="Group_6394" data-name="Group 6394" transform="translate(60.265 0.199)">
        <g id="Group_6393" data-name="Group 6393">
          <path id="Path_3001" data-name="Path 3001" class="cls-2" d="M175.359,36.647H163.6V14.4h5.6V31.323h6.158Z" transform="translate(-163.6 -13.963)"/>
          <path id="Path_3002" data-name="Path 3002" class="cls-2" d="M214.014,19.763h-6.952v3.416h5.284v4.847h-5.284v3.258h6.952v5.363H201.5V14.4h12.514Z" transform="translate(-186.444 -13.963)"/>
          <path id="Path_3003" data-name="Path 3003" class="cls-2" d="M255.858,23.867v4.807c0,4.529-3.059,7.667-7.429,7.667S241,33.2,241,28.674V21.007c0-4.529,3.059-7.707,7.429-7.707,4.33,0,7.349,3.1,7.429,7.508h-5.6c0-1.907-.993-2.145-1.827-2.145-.874,0-1.827.238-1.827,2.145v8.025c0,1.907,1.073,2.105,1.827,2.105.795,0,1.827-.238,1.827-2.105v-.159h-1.788V23.867Z" transform="translate(-210.252 -13.3)"/>
          <path id="Path_3004" data-name="Path 3004" class="cls-2" d="M294.6,32.852h-4.569l-.834,3.734h-5.6L289.4,14.3h6l5.721,22.286h-5.6Zm-3.5-4.847h2.423l-1.152-6.277Z" transform="translate(-235.929 -13.903)"/>
          <path id="Path_3005" data-name="Path 3005" class="cls-2" d="M346.959,36.647H335.2V14.4h5.6V31.323h6.158Z" transform="translate(-267.03 -13.963)"/>
        </g>
        <rect id="Rectangle_188" data-name="Rectangle 188" class="cls-2" width="79.929" height="4.33" transform="translate(0 27.61)"/>
      </g>
    </g>
  </g>
</svg>
