<svg xmlns="http://www.w3.org/2000/svg" xmlns:xlink="http://www.w3.org/1999/xlink" viewBox="11773 2018 161.747 67">
  <defs>
    <style>
      .cls-1, .cls-2 {
        fill: none;
      }

      .cls-2 {
        clip-rule: evenodd;
      }

      .cls-3 {
        clip-path: url(#clip-path);
      }

      .cls-4 {
        clip-path: url(#clip-path-2);
      }

      .cls-5 {
        clip-path: url(#clip-path-3);
      }

      .cls-6 {
        fill: #005281;
      }

      .cls-7 {
        clip-path: url(#clip-path-4);
      }

      .cls-8 {
        clip-path: url(#clip-path-6);
      }

      .cls-9 {
        clip-path: url(#clip-path-8);
      }

      .cls-10 {
        clip-path: url(#clip-path-10);
      }

      .cls-11 {
        clip-path: url(#clip-path-12);
      }

      .cls-12 {
        clip-path: url(#clip-path-14);
      }

      .cls-13 {
        clip-path: url(#clip-path-15);
      }

      .cls-14 {
        clip-path: url(#clip-path-16);
      }

      .cls-15 {
        clip-path: url(#clip-path-17);
      }

      .cls-16 {
        clip-path: url(#clip-path-19);
      }

      .cls-17 {
        clip-path: url(#clip-path-21);
      }

      .cls-18 {
        clip-path: url(#clip-path-23);
      }

      .cls-19 {
        clip-path: url(#clip-path-25);
      }

      .cls-20 {
        clip-path: url(#clip-path-27);
      }

      .cls-21 {
        clip-path: url(#clip-path-29);
      }

      .cls-22 {
        clip-path: url(#clip-path-31);
      }

      .cls-23 {
        fill: #fdcb00;
      }

      .cls-24 {
        clip-path: url(#clip-path-33);
      }

      .cls-25 {
        clip-path: url(#clip-path-35);
      }

      .cls-26 {
        clip-path: url(#clip-path-37);
      }

      .cls-27 {
        clip-path: url(#clip-path-39);
      }

      .cls-28 {
        clip-path: url(#clip-path-41);
      }

      .cls-29 {
        clip-path: url(#clip-path-43);
      }

      .cls-30 {
        clip-path: url(#clip-path-45);
      }

      .cls-31 {
        clip-path: url(#clip-path-47);
      }

      .cls-32 {
        clip-path: url(#clip-path-49);
      }

      .cls-33 {
        clip-path: url(#clip-path-51);
      }

      .cls-34 {
        clip-path: url(#clip-path-52);
      }

      .cls-35 {
        clip-path: url(#clip-path-53);
      }

      .cls-36 {
        clip-path: url(#clip-path-54);
      }

      .cls-37 {
        clip-path: url(#clip-path-56);
      }
    </style>
    <clipPath id="clip-path">
      <rect id="rectangle" class="cls-1" width="161.747" height="67"/>
    </clipPath>
    <clipPath id="clip-path-2">
      <path id="path" class="cls-2" d="M192.417-30.632l.769.056a.517.517,0,0,1,.482.33,2.153,2.153,0,0,1,.172.644,5.287,5.287,0,0,0,.112.991.564.564,0,0,1-.028.343c-.116.381-.215.766-.3,1.155a.443.443,0,0,1-.461.311,6.376,6.376,0,0,1-1.59-.081.409.409,0,0,0-.125-.006,5.8,5.8,0,0,1-1.39-.133,1.717,1.717,0,0,0-.474-.02,11.184,11.184,0,0,0-1.215.14,4.2,4.2,0,0,1-.718.064,1.394,1.394,0,0,0-.718.167,1.253,1.253,0,0,1-.558.119,6.543,6.543,0,0,0-1.389.3,3.173,3.173,0,0,1-1.322.21,4.975,4.975,0,0,1-.572,0,.278.278,0,0,1-.254-.234,3.75,3.75,0,0,1-.07-1.115,1.64,1.64,0,0,1,.468-.966,4.107,4.107,0,0,0,.453-.688c.313-.495.511-1.05.8-1.554.207-.356.332-.745.513-1.108a11.445,11.445,0,0,1,.82-1.43,20.033,20.033,0,0,0,1.133-1.8,4.468,4.468,0,0,1,.555-.8,3.321,3.321,0,0,0,.353-.515c.314-.543.676-1.052,1.039-1.563a5.623,5.623,0,0,0,.32-.593,5.434,5.434,0,0,1,.459-.682,3.111,3.111,0,0,0,.65-1.253,2.062,2.062,0,0,0,.03-.349c0-.169-.086-.232-.26-.223s-.365,0-.548,0a.767.767,0,0,0-.2,0c-.554.144-1.136.018-1.682.165a4.073,4.073,0,0,0-.8.151.442.442,0,0,1-.271.014c-.234-.039-.374,0-.45.2-.155.412-.46.732-.645,1.125-.049.1-.15.151-.237.215a1.421,1.421,0,0,1-1.124.2.38.38,0,0,1-.287-.22.943.943,0,0,1-.11-.408c-.009-.42-.136-.822-.176-1.237a1.826,1.826,0,0,1,0-.546,1.769,1.769,0,0,0,.026-.4.7.7,0,0,1,.429-.768.126.126,0,0,0,.042-.027.872.872,0,0,1,.924-.191,1.367,1.367,0,0,0,.571.008.778.778,0,0,1,.274,0,6.094,6.094,0,0,0,1.247.078c.209,0,.418.053.622.04a10.155,10.155,0,0,0,1.17-.083.738.738,0,0,1,.324-.008,2.726,2.726,0,0,0,.99-.012,6.023,6.023,0,0,1,.7-.039,9.068,9.068,0,0,0,2.133-.217,1.639,1.639,0,0,1,.695,0,2.545,2.545,0,0,0,.449.022c.246.008.364.11.313.337a1.413,1.413,0,0,1-.277.763.124.124,0,0,0-.042.061c-.036.36-.367.476-.572.7-.011.012-.029.017-.041.028-.212.187-.357.434-.657.544a2.1,2.1,0,0,0-.668.553,5.914,5.914,0,0,0-.7.771,13.687,13.687,0,0,0-.676,1.238c-.07.125-.166.229-.237.349a4.231,4.231,0,0,0-.54,1.007c-.038.138-.161.231-.23.354-.267.471-.537.94-.764,1.432a7.454,7.454,0,0,1-.564.883c-.107.167-.188.347-.305.511q-.561.8-1.134,1.584a4.28,4.28,0,0,0-.425.791c-.185.419-.445.8-.611,1.23a3.088,3.088,0,0,0-.15.5.571.571,0,0,0,.455.645,4.394,4.394,0,0,0,.7.043c.392.014.785,0,1.177.009a4.573,4.573,0,0,1,.622.06,2.659,2.659,0,0,0,.845,0,4.316,4.316,0,0,1,.6-.016c.125,0,.251.009.375,0,.16-.011.338.055.466-.107a.871.871,0,0,0,.277-.767.824.824,0,0,1,.205-.766.28.28,0,0,0,.061-.079c.135-.4.462-.433.763-.438" transform="translate(-182.745 42.909)"/>
    </clipPath>
    <clipPath id="clip-path-3">
      <path id="path-2" data-name="path" class="cls-1" d="M0-32H161.747V-99H0Z" transform="translate(0 99)"/>
    </clipPath>
    <clipPath id="clip-path-4">
      <path id="path-3" data-name="path" class="cls-2" d="M166.758-29.652c-.028-.364-.064-.82-.1-1.276,0-.058-.009-.117-.01-.175a15.86,15.86,0,0,0-.091-1.6.64.64,0,0,1,0-.125,6.767,6.767,0,0,0-.06-1.417,3.683,3.683,0,0,1,.027-.8,8.929,8.929,0,0,0,.073-1.1c-.02-.492-.018-.982-.005-1.473a1.081,1.081,0,0,0-.008-.249,1.643,1.643,0,0,1-.008-.6,2.516,2.516,0,0,0-.024-.423c0-.633.013-1.267-.02-1.9-.018-.358-.039-.716-.058-1.073-.008-.133-.019-.266-.021-.4a.378.378,0,0,1,.275-.4,2.637,2.637,0,0,1,1.349-.165.891.891,0,0,0,.274.017,3.048,3.048,0,0,1,1.057.161.394.394,0,0,1,.259.461,3.641,3.641,0,0,0,0,.52,2.4,2.4,0,0,1-.584,1.7.986.986,0,0,0-.18.326.443.443,0,0,1-.146.228.721.721,0,0,0-.319.694,8.474,8.474,0,0,1-.106,1.412,2.544,2.544,0,0,0-.008.425.813.813,0,0,1-.051.343.674.674,0,0,0-.024.442,1.1,1.1,0,0,1,.014.422c-.023.232-.054.464-.077.7a1.747,1.747,0,0,0,.006.449.611.611,0,0,1,.017.124c-.019.473.08.941.029,1.419a4.755,4.755,0,0,0,.027,1.166,2.4,2.4,0,0,1-.038.82,1.825,1.825,0,0,0,.232,1.365c.146.244.317.468.471.706a.73.73,0,0,0,.72.4,1.478,1.478,0,0,1,.618.07.746.746,0,0,0,.2.024c.641.031,1.278.107,1.916.17a1.859,1.859,0,0,0,1.13-.081,2.391,2.391,0,0,0,.94-.839.577.577,0,0,1,.1-.146,1.682,1.682,0,0,0,.42-.961c.077-.29.114-.59.215-.873a.476.476,0,0,0,.032-.146,6.393,6.393,0,0,0-.007-1.422,4.907,4.907,0,0,1-.055-1c0-.318-.037-.631-.043-.947-.012-.616-.1-1.227-.105-1.844,0-.211.068-.411.059-.621-.018-.408.018-.818,0-1.224-.014-.34-.061-.679-.062-1.021a.216.216,0,0,0-.05-.139c-.251-.258-.412-.6-.739-.789a2.008,2.008,0,0,1-.4-.408c-.18-.193-.278-.454-.518-.6a.363.363,0,0,1-.132-.311c-.008-.134-.03-.265-.048-.4a1.384,1.384,0,0,1,.151-.824.6.6,0,0,1,.581-.358,1.943,1.943,0,0,1,.612.1.576.576,0,0,0,.244.04,2.731,2.731,0,0,1,.814.076,1.839,1.839,0,0,1,.623.228.938.938,0,0,1,.423.745,10.207,10.207,0,0,1,0,1.189c0,.712-.014,1.428.042,2.138.042.522.068,1.047.131,1.568a5.411,5.411,0,0,1-.02.749c-.005.282-.018.565-.029.846-.023.585.093,1.158.083,1.739-.005.292-.024.583-.027.874a5.763,5.763,0,0,0,.04,1.27.669.669,0,0,1-.014.3.658.658,0,0,0-.008.3.658.658,0,0,1-.007.322,2.838,2.838,0,0,0,0,.868c.008.416.03.831.049,1.246a.51.51,0,0,1-.155.408c-.384.372-.7.807-1.061,1.2a1.5,1.5,0,0,1-1.126.446.834.834,0,0,1-.485-.076.243.243,0,0,0-.147-.005,10.754,10.754,0,0,1-1.218.106,2.739,2.739,0,0,1-.743,0,.262.262,0,0,0-.1-.005,8.954,8.954,0,0,1-1.392-.014c-.524,0-1.049.012-1.572.028a.736.736,0,0,1-.587-.116.161.161,0,0,0-.118-.026.392.392,0,0,1-.4-.193,1.973,1.973,0,0,0-.315-.321.675.675,0,0,1-.2-.28,7.345,7.345,0,0,1-.3-.687.438.438,0,0,1-.018-.1,12.168,12.168,0,0,1-.095-1.414" transform="translate(-166.45 43.197)"/>
    </clipPath>
    <clipPath id="clip-path-6">
      <path id="path-5" data-name="path" class="cls-2" d="M145.482-66.32a.384.384,0,0,0-.027.27,1.292,1.292,0,0,1-.022.5,8.63,8.63,0,0,0-.111.889,1.739,1.739,0,0,0,.053.59,2.844,2.844,0,0,1,.006.82,1.848,1.848,0,0,0,0,.449,8.137,8.137,0,0,1,.009,1.673c-.01.179.034.348.033.523,0,.893-.006,1.786,0,2.679a9.535,9.535,0,0,0,.057,1.2.913.913,0,0,0,.392.694,1.163,1.163,0,0,1,.492,1.13.255.255,0,0,1-.156.236,1.29,1.29,0,0,1-.555.131,2.506,2.506,0,0,1-.673-.027.566.566,0,0,0-.224-.013,6.25,6.25,0,0,1-1.045,0,1.011,1.011,0,0,0-.3.024.393.393,0,0,1-.478-.177.419.419,0,0,1,0-.451.8.8,0,0,1,.107-.169,4.434,4.434,0,0,0,.332-.438.362.362,0,0,1,.282-.182,1.513,1.513,0,0,0,.169-.043.293.293,0,0,0,.257-.3,15.445,15.445,0,0,0,.1-1.8c-.017-.282-.087-.559-.115-.842-.049-.5-.083-1-.09-1.5-.009-.616-.015-1.231-.029-1.847a13.463,13.463,0,0,1,.043-1.826,12.154,12.154,0,0,0,.049-1.3,4.27,4.27,0,0,1,.076-.67.692.692,0,0,0,0-.3,2.47,2.47,0,0,1-.04-.793,2.745,2.745,0,0,0-.161-1.276,1.927,1.927,0,0,1-.043-1.038.209.209,0,0,1,.077-.152,1.316,1.316,0,0,1,1.1-.285,1.861,1.861,0,0,1,.689.2.049.049,0,0,0,.022.011c.418.021.529.4.752.648.021.024.023.065.045.088a6.538,6.538,0,0,1,.782,1.409c.3.516.575,1.047.864,1.569.081.147.211.256.29.406.225.427.54.8.771,1.223.148.271.333.516.492.779a8.779,8.779,0,0,0,.663.875,2.606,2.606,0,0,1,.212.306,3.037,3.037,0,0,0,.716.92c.129.1.2.085.251-.075a1.686,1.686,0,0,0,.05-.62,10.281,10.281,0,0,1-.1-1.193,10.41,10.41,0,0,0,.007-1.074c-.042-.607-.087-1.214-.131-1.821a.724.724,0,0,1,0-.15,5.58,5.58,0,0,0-.005-1.273c-.017-.2-.009-.4-.01-.6,0-.112-.012-.217-.132-.273a.311.311,0,0,1-.128-.15.712.712,0,0,0-.259-.265.638.638,0,0,1-.157-.882.284.284,0,0,1,.212-.118c.258-.02.509-.084.765-.114.313-.036.63,0,.943-.051a.247.247,0,0,1,.147.023,1.259,1.259,0,0,0,.653.1.284.284,0,0,1,.189.048,1,1,0,0,1,.411.627.488.488,0,0,1-.364.541.418.418,0,0,0-.25.152,1.085,1.085,0,0,1-.187.2.272.272,0,0,0-.1.17,4.161,4.161,0,0,0-.091,1.263,6.486,6.486,0,0,1,.019,1.049,9.281,9.281,0,0,1-.035,1.074,3.538,3.538,0,0,0,.057.971,4.873,4.873,0,0,1,.005,1.3c-.012.1.022.2.009.3-.076.539.035,1.081-.021,1.62a1.173,1.173,0,0,0,.015.325,6.093,6.093,0,0,1,.066,1.146c-.005.385.062.765.075,1.148a7.445,7.445,0,0,1,.044.791,5.129,5.129,0,0,0,.155,1.233.576.576,0,0,0,.314.4.353.353,0,0,1,.227.377.468.468,0,0,0,.053.24c.07.152.055.193-.074.3-.084.068-.172.131-.258.2a.437.437,0,0,1-.5.1.211.211,0,0,0-.122-.018c-.378.069-.767.034-1.143.107a2.022,2.022,0,0,1-.771-.017.64.64,0,0,1-.412-.722,2.421,2.421,0,0,1,.844-1.151.718.718,0,0,0,.269-.461,1.478,1.478,0,0,1,.057-.295,1.713,1.713,0,0,0-.042-1.033.535.535,0,0,0-.12-.216q-.343-.4-.679-.8a3.013,3.013,0,0,1-.417-.623,3.919,3.919,0,0,0-.567-.817c-.347-.415-.721-.809-1.047-1.239-.384-.5-.846-.94-1.225-1.449-.218-.292-.493-.544-.692-.854-.131-.2-.288-.385-.436-.576-.264-.343-.523-.689-.786-1.033a5.219,5.219,0,0,1-.3-.514c-.032-.054-.058-.118-.136-.145" transform="translate(-142.871 70.157)"/>
    </clipPath>
    <clipPath id="clip-path-8">
      <path id="path-7" data-name="path" class="cls-2" d="M189.533-66.32a.384.384,0,0,0-.027.27,1.294,1.294,0,0,1-.022.5,8.651,8.651,0,0,0-.112.889,1.742,1.742,0,0,0,.053.59,2.843,2.843,0,0,1,.006.82,1.851,1.851,0,0,0,0,.449,8.133,8.133,0,0,1,.009,1.673c-.01.179.033.348.033.523,0,.893-.006,1.786,0,2.679a9.512,9.512,0,0,0,.057,1.2.913.913,0,0,0,.392.694,1.163,1.163,0,0,1,.492,1.13.255.255,0,0,1-.156.236,1.29,1.29,0,0,1-.555.131,2.506,2.506,0,0,1-.673-.027.566.566,0,0,0-.224-.013,6.25,6.25,0,0,1-1.045,0,1.011,1.011,0,0,0-.3.024.393.393,0,0,1-.478-.177.419.419,0,0,1,0-.451.8.8,0,0,1,.107-.169,4.431,4.431,0,0,0,.332-.438.362.362,0,0,1,.282-.182,1.512,1.512,0,0,0,.169-.043.293.293,0,0,0,.256-.3,15.445,15.445,0,0,0,.1-1.8c-.017-.282-.087-.559-.115-.842-.049-.5-.083-1-.09-1.5-.009-.616-.015-1.231-.029-1.847a13.473,13.473,0,0,1,.043-1.826,12.138,12.138,0,0,0,.049-1.3,4.263,4.263,0,0,1,.076-.67.691.691,0,0,0,0-.3,2.47,2.47,0,0,1-.04-.793,2.746,2.746,0,0,0-.161-1.276,1.927,1.927,0,0,1-.043-1.038.209.209,0,0,1,.077-.152,1.316,1.316,0,0,1,1.1-.285,1.862,1.862,0,0,1,.689.2.049.049,0,0,0,.022.011c.418.021.529.4.752.648.021.024.023.065.045.088a6.54,6.54,0,0,1,.782,1.409c.3.516.575,1.047.864,1.569.081.147.211.256.29.406.225.427.54.8.771,1.223.148.271.333.516.492.779a8.767,8.767,0,0,0,.663.875,2.6,2.6,0,0,1,.212.306,3.038,3.038,0,0,0,.716.92c.129.1.2.085.251-.075a1.687,1.687,0,0,0,.05-.62,10.294,10.294,0,0,1-.1-1.193,10.389,10.389,0,0,0,.007-1.074c-.042-.607-.087-1.214-.131-1.821a.724.724,0,0,1,0-.15,5.584,5.584,0,0,0-.005-1.273c-.017-.2-.009-.4-.01-.6,0-.112-.012-.217-.132-.273a.311.311,0,0,1-.128-.15.712.712,0,0,0-.259-.265.638.638,0,0,1-.157-.882.284.284,0,0,1,.212-.118c.258-.02.51-.084.765-.114.312-.036.63,0,.943-.051a.247.247,0,0,1,.147.023,1.259,1.259,0,0,0,.653.1.284.284,0,0,1,.189.048,1,1,0,0,1,.411.627.488.488,0,0,1-.364.541.417.417,0,0,0-.25.152,1.085,1.085,0,0,1-.187.2.273.273,0,0,0-.1.17,4.164,4.164,0,0,0-.091,1.263,6.479,6.479,0,0,1,.019,1.049,9.281,9.281,0,0,1-.035,1.074,3.54,3.54,0,0,0,.057.971,4.873,4.873,0,0,1,.005,1.3c-.012.1.022.2.009.3-.076.539.035,1.081-.021,1.62a1.18,1.18,0,0,0,.015.325,6.08,6.08,0,0,1,.066,1.146c-.005.385.062.765.075,1.148a7.461,7.461,0,0,1,.044.791,5.131,5.131,0,0,0,.155,1.233.577.577,0,0,0,.314.4.353.353,0,0,1,.227.377.467.467,0,0,0,.053.24c.07.152.055.193-.074.3-.084.068-.172.131-.258.2a.437.437,0,0,1-.5.1.211.211,0,0,0-.122-.018c-.378.069-.767.034-1.143.107a2.022,2.022,0,0,1-.771-.017.64.64,0,0,1-.412-.722,2.421,2.421,0,0,1,.844-1.151.719.719,0,0,0,.269-.461,1.478,1.478,0,0,1,.057-.295,1.713,1.713,0,0,0-.042-1.033.536.536,0,0,0-.12-.216q-.343-.4-.679-.8a3.01,3.01,0,0,1-.417-.623,3.92,3.92,0,0,0-.567-.817c-.347-.415-.721-.809-1.047-1.239-.384-.5-.846-.94-1.225-1.449-.218-.292-.493-.544-.692-.854-.131-.2-.288-.385-.436-.576-.264-.343-.523-.689-.786-1.033a5.216,5.216,0,0,1-.3-.514c-.032-.054-.058-.118-.136-.145" transform="translate(-186.922 70.157)"/>
    </clipPath>
    <clipPath id="clip-path-10">
      <path id="path-9" data-name="path" class="cls-2" d="M210.61-63.658c.352-.011.792-.023,1.232-.04a4.042,4.042,0,0,1,.895.08.8.8,0,0,0,.533-.088,3.223,3.223,0,0,0,.818-.612,1,1,0,0,0,.207-.63c.046-.506.088-1.013.106-1.521a7.634,7.634,0,0,0-.051-.873,6.437,6.437,0,0,1-.035-.65.469.469,0,0,0-.049-.217c-.1-.2-.184-.41-.288-.609a1.244,1.244,0,0,1-.11-.706.227.227,0,0,1,.2-.225,9.382,9.382,0,0,0,.907-.276.418.418,0,0,1,.315.017,1.777,1.777,0,0,0,.473.157.335.335,0,0,1,.245.221,1.791,1.791,0,0,1,.149.97c-.073.662-.2,1.314-.33,1.966a1.754,1.754,0,0,0-.034.572,3.7,3.7,0,0,1,0,.572c-.009.515-.091,1.027-.067,1.543a.949.949,0,0,1-.07.263,2.867,2.867,0,0,0-.058.693,10.861,10.861,0,0,1-.128,1.316,4.173,4.173,0,0,0-.031.574c.025.768-.035,1.534-.046,2.3a.178.178,0,0,1,0,.05,4.306,4.306,0,0,0,.025,1.584,1.583,1.583,0,0,1-.005.547.315.315,0,0,0,.013.171,4.006,4.006,0,0,0,.164.418c.062.161.129.293.334.323.127.019.171.172.253.265a.572.572,0,0,1,.027.753.3.3,0,0,0-.049.087.273.273,0,0,1-.318.22,3.628,3.628,0,0,0-.721.041,5.968,5.968,0,0,1-.947.047.438.438,0,0,0-.172.025,1.67,1.67,0,0,1-.741.071.709.709,0,0,1-.195-.04.277.277,0,0,1-.214-.362,1.927,1.927,0,0,1,.174-.494,1.722,1.722,0,0,0,.172-.468.69.69,0,0,1,.3-.474.863.863,0,0,0,.362-.631,3.645,3.645,0,0,0,.035-.622c-.008-.265.027-.531.025-.8,0-.509-.043-1.015-.08-1.523-.031-.416-.038-.833-.059-1.25a3.678,3.678,0,0,0-.04-.373.635.635,0,0,0-.332-.5.123.123,0,0,1-.041-.028c-.244-.321-.588-.258-.917-.234a1.591,1.591,0,0,0-.32.046,1.792,1.792,0,0,1-.838-.037.523.523,0,0,0-.2,0,.235.235,0,0,1-.122.013,5.18,5.18,0,0,0-1.108-.161,3.094,3.094,0,0,0-1.193.044.307.307,0,0,0-.244.194,2.533,2.533,0,0,0-.247,1.208.962.962,0,0,1-.057.54.59.59,0,0,0-.035.245,1.746,1.746,0,0,1-.152.822.375.375,0,0,0-.04.244c.072.388.018.782.059,1.171a.1.1,0,0,1,0,.05,1.046,1.046,0,0,0,.014.707,3.294,3.294,0,0,1,.015.575,1.257,1.257,0,0,0,.046.4.291.291,0,0,0,.143.2c.308.124.4.431.575.666.158.218-.095.639-.388.678a1.964,1.964,0,0,1-.448.025,5.118,5.118,0,0,0-1.221.054c-.049.007-.105.031-.147.016-.308-.114-.642-.1-.953-.192a.222.222,0,0,1-.179-.262,1.453,1.453,0,0,1,.258-.773,1.132,1.132,0,0,0,.119-.189.293.293,0,0,1,.2-.18c.148-.033.176-.128.174-.259-.006-.668,0-1.335-.011-2,0-.358-.028-.718-.016-1.073.013-.4.015-.8.055-1.2.032-.314.041-.63.042-.946,0-.292.061-.578.063-.871,0-.374.054-.747.066-1.122.01-.33.083-.66.106-.993a1.655,1.655,0,0,1,.04-.344.347.347,0,0,0,.019-.2,1.4,1.4,0,0,1,.017-.664c.033-.355.054-.71.054-1.067a1.556,1.556,0,0,1,.037-.244,7.3,7.3,0,0,0,.008-1.739c-.023-.309-.1-.608-.144-.912a.243.243,0,0,1,.146-.3,1,1,0,0,1,.525-.121,2.388,2.388,0,0,1,.732.124,1.485,1.485,0,0,0,.467.078.465.465,0,0,1,.444.3.884.884,0,0,1,.02.765,7.253,7.253,0,0,0-.195,1.03c-.1.515-.147,1.038-.22,1.558a4.668,4.668,0,0,0-.123,1.213,2.73,2.73,0,0,0,.262.749c.171.071.236.25.365.36a.889.889,0,0,0,.445.147,6.2,6.2,0,0,0,1.26.033" transform="translate(-205.394 70.047)"/>
    </clipPath>
    <clipPath id="clip-path-12">
      <path id="path-11" data-name="path" class="cls-2" d="M233.484-53.849V-70.612H223.4v16.764Zm0,0" transform="translate(-223.404 70.612)"/>
    </clipPath>
    <clipPath id="clip-path-14">
      <rect id="rectangle-2" data-name="rectangle" class="cls-1" width="10.828" height="17.596"/>
    </clipPath>
    <clipPath id="clip-path-15">
      <path id="path-13" data-name="path" class="cls-2" d="M231.305-64.234A5,5,0,0,0,231.067-66a6.393,6.393,0,0,1-.184-1.107,1.437,1.437,0,0,0-.392-.733c-.184-.2-.383-.394-.557-.608a.242.242,0,0,0-.158-.114,1.149,1.149,0,0,0-.444-.04.3.3,0,0,1-.221-.016c-.367-.2-.715.017-1.072.043-.18.162-.4.258-.589.416-.318.274-.55.626-.847.918a2.279,2.279,0,0,0-.463.585.608.608,0,0,1-.172.178c-.147.125-.322.267-.331.455a1.954,1.954,0,0,1-.269.744,4.944,4.944,0,0,0-.411,1.457c-.04.306-.055.614-.089.92a3.382,3.382,0,0,0-.015.871,2.938,2.938,0,0,1,.042.8,6.351,6.351,0,0,0-.021,1.194,3.91,3.91,0,0,0,.228,1.173c.161.422.395.808.571,1.222a2.341,2.341,0,0,0,.154.256,4.911,4.911,0,0,0,.6.7,1.9,1.9,0,0,0,.311.356c.259.181.516.364.771.552a1.167,1.167,0,0,0,.719.252,1.707,1.707,0,0,0,1.265-.471,1.725,1.725,0,0,0,.489-.789,5.727,5.727,0,0,1,.215-.693,13.252,13.252,0,0,0,.486-1.5c.065-.259.113-.522.189-.777a8.155,8.155,0,0,0,.243-1.25c.084-.619.031-1.246.126-1.868a7.457,7.457,0,0,0,.062-1.353m-7.822,4.123-.078-1.632a.688.688,0,0,1,.028-.247,6.217,6.217,0,0,0,.148-.886,9.984,9.984,0,0,0,.064-1.346,7.013,7.013,0,0,1,.08-1.146,4.957,4.957,0,0,0,.1-.866,2.477,2.477,0,0,1,.174-.8c.038-.1.084-.2.129-.3a8.376,8.376,0,0,1,.681-1.217,1.536,1.536,0,0,1,.414-.392,7.688,7.688,0,0,0,.816-.73.889.889,0,0,1,.2-.146,1.926,1.926,0,0,0,.567-.355.927.927,0,0,1,.463-.175,1.384,1.384,0,0,0,.307-.1,2.049,2.049,0,0,1,1.223-.127,6.217,6.217,0,0,1,.659.14.543.543,0,0,1,.19.059.813.813,0,0,0,.518.145.4.4,0,0,1,.247.111c.269.21.519.441.778.662a1.3,1.3,0,0,1,.462.6c.016.051.07.091.109.135a1.128,1.128,0,0,1,.263.362,2.812,2.812,0,0,0,.442.775.414.414,0,0,1,.059.136.919.919,0,0,0,.245.429.186.186,0,0,1,.046.059,4.065,4.065,0,0,1,.474,1.219,2.174,2.174,0,0,0,.088.466,1.7,1.7,0,0,1,.073.617,8,8,0,0,0,.029.92,3.47,3.47,0,0,1-.2,1.223,2.461,2.461,0,0,0-.095.641,8.484,8.484,0,0,1-.221,1.629,3.911,3.911,0,0,0-.106.559,2.146,2.146,0,0,1-.149.523c-.09.233-.132.478-.218.712-.126.342-.253.687-.348,1.04-.081.3-.236.566-.328.86-.031.1-.077.2-.1.3a1.247,1.247,0,0,1-.144.315,2.431,2.431,0,0,0-.25.51.874.874,0,0,1-.3.454.98.98,0,0,0-.315.351.194.194,0,0,1-.088.085,7.088,7.088,0,0,1-1.1.524,4.221,4.221,0,0,1-1.53.144,6.337,6.337,0,0,0-.8.015,1.872,1.872,0,0,1-1.2-.325.978.978,0,0,0-.169-.107,1.009,1.009,0,0,1-.471-.5,2.283,2.283,0,0,0-.46-.737.369.369,0,0,1-.061-.135,9.834,9.834,0,0,0-.477-1.016c-.106-.2-.186-.4-.287-.6-.075-.148-.065-.358-.133-.527a5.967,5.967,0,0,1-.24-.839,10.046,10.046,0,0,1-.206-1.472" transform="translate(-223.404 70.612)"/>
    </clipPath>
    <clipPath id="clip-path-16">
      <path id="path-14" data-name="path" class="cls-1" d="M223-53.4h10.828V-71H223Z" transform="translate(-223 71)"/>
    </clipPath>
    <clipPath id="clip-path-17">
      <path id="path-15" data-name="path" class="cls-2" d="M135.782-63.652c0-.109,0-.217,0-.326a4.109,4.109,0,0,0-.329-1.7c-.084-.183-.2-.349-.291-.524a2.511,2.511,0,0,0-1.005-1.1.51.51,0,0,1-.126-.118.972.972,0,0,0-.506-.306c-.294-.061-.577-.157-.864-.236a1.259,1.259,0,0,0-1.164.127,1.626,1.626,0,0,1-.262.189.789.789,0,0,0-.385.468.811.811,0,0,1-.077.155,2.061,2.061,0,0,0-.307.813,7.437,7.437,0,0,0-.2,1.408,9.5,9.5,0,0,0,0,1.411,6.214,6.214,0,0,1,.081,1.221,4.612,4.612,0,0,0,.162,1.56,2.409,2.409,0,0,1,.141.859.958.958,0,0,0,.037.221c.041.231.164.441.2.671a2.709,2.709,0,0,0,.632,1.365,2.31,2.31,0,0,0,2.2.732c.082-.009.15-.079.236-.076a1.566,1.566,0,0,0,.966-.347,3.089,3.089,0,0,1,.315-.2,1.1,1.1,0,0,0,.561-.668,2.517,2.517,0,0,0,.06-.318A4.229,4.229,0,0,0,136-58.95a7.835,7.835,0,0,0-.032-1.122,2.62,2.62,0,0,1-.057-.545,9.218,9.218,0,0,0-.039-1.838,10.765,10.765,0,0,1-.087-1.2m2.09.978a7.856,7.856,0,0,0,.091.989c-.012.516.048,1.03.05,1.546,0,.117-.009.233-.015.349a1.159,1.159,0,0,0-.012.274,2.189,2.189,0,0,1-.155,1.151,1.862,1.862,0,0,0-.1.463.826.826,0,0,1-.154.415,2.826,2.826,0,0,0-.246.435.827.827,0,0,1-.232.291,7.748,7.748,0,0,0-1.018,1.06.749.749,0,0,1-.237.179,1.84,1.84,0,0,0-.425.338,1.424,1.424,0,0,1-.577.419.787.787,0,0,0-.157.077,1.393,1.393,0,0,1-.83.224c-.158-.013-.317,0-.475,0a.742.742,0,0,1-.245-.041,7.355,7.355,0,0,1-2.025-1.057,6.844,6.844,0,0,1-.548-.507c-.018-.017-.028-.045-.048-.057a2.449,2.449,0,0,1-.881-1.237,4.615,4.615,0,0,1-.414-1.148,6.834,6.834,0,0,0-.259-.857.56.56,0,0,1-.036-.169.534.534,0,0,0-.142-.413.148.148,0,0,1-.044-.113c.055-.245-.095-.471-.065-.713a.654.654,0,0,0-.059-.318,2.862,2.862,0,0,1-.148-1.082.816.816,0,0,0-.025-.248,1.887,1.887,0,0,1-.066-1.008c.07-.312,0-.63.039-.943a.683.683,0,0,1,.009-.148c.177-.449.271-.923.423-1.38.113-.339.233-.676.358-1.009a8.212,8.212,0,0,1,.44-.865,8.744,8.744,0,0,1,.9-1.348.832.832,0,0,1,.12-.126c.176-.146.4-.237.5-.462a2.492,2.492,0,0,1,.947-.476,2.413,2.413,0,0,1,.937-.017,2.362,2.362,0,0,0,.5.022,2.8,2.8,0,0,1,.561.11.271.271,0,0,1,.151.083,1.23,1.23,0,0,0,.579.328.847.847,0,0,1,.382.266,4.9,4.9,0,0,0,.454.427.857.857,0,0,1,.265.358c.043.133.173.2.244.314a9.385,9.385,0,0,1,1.02,2.272c.12.4.21.8.362,1.191a2.087,2.087,0,0,1,.1.488c.05.38.137.753.206,1.129a2.936,2.936,0,0,1,.006.547" transform="translate(-128.332 70.249)"/>
    </clipPath>
    <clipPath id="clip-path-19">
      <path id="path-17" data-name="path" class="cls-2" d="M119.95-35.2a.98.98,0,0,0-.1-.589c-.021-.053-.019-.115-.035-.171a2.376,2.376,0,0,0-.475-1.157.142.142,0,0,1-.03-.04c-.124-.284-.354-.508-.468-.791a1.291,1.291,0,0,0-.4-.516,1.788,1.788,0,0,0-.379-.281,6.409,6.409,0,0,0-.921-.389,2.472,2.472,0,0,1-.254-.106c-.264-.112-.485-.326-.8-.321a.3.3,0,0,1-.174-.091.421.421,0,0,0-.58-.046.589.589,0,0,0-.334.652,2.721,2.721,0,0,1,.03.4,5.718,5.718,0,0,0,.008,1.416.06.06,0,0,1,0,.025,3.467,3.467,0,0,0-.01.868,1.154,1.154,0,0,1-.057.493.318.318,0,0,0-.024.121,8.259,8.259,0,0,0,.1,1.188,2.249,2.249,0,0,1,.032.323c.039.825-.042,1.647-.037,2.47,0,.449.006.9.03,1.347a17.286,17.286,0,0,0,.308,1.971.579.579,0,0,0,.036.12.552.552,0,0,0,.466.365,1.473,1.473,0,0,0,.762-.046,1.71,1.71,0,0,0,.4-.2.807.807,0,0,1,.285-.153,4.583,4.583,0,0,0,.726-.271.923.923,0,0,0,.593-.518,2.774,2.774,0,0,1,.366-.622,2.812,2.812,0,0,0,.334-.8,9.592,9.592,0,0,0,.357-1.326c.054-.286.084-.577.11-.867a7.169,7.169,0,0,0,.1-.717,1.074,1.074,0,0,1,.085-.586.3.3,0,0,0,.013-.172c-.042-.321-.01-.645-.073-.982m1.564.176c.027.381.041.763.076,1.145a2.182,2.182,0,0,1-.139.98,2.134,2.134,0,0,0-.137.608,5.141,5.141,0,0,1-.23,1c-.072.265-.157.527-.222.794a.9.9,0,0,1-.168.358,1.391,1.391,0,0,0-.241.519,4.187,4.187,0,0,1-.38.919,3.4,3.4,0,0,1-.685.855c-.031.028-.076.049-.092.083-.179.37-.565.381-.882.5a1.55,1.55,0,0,0-.279.1,7.02,7.02,0,0,1-1.15.483.632.632,0,0,0-.18.083.873.873,0,0,1-.7.195,2.53,2.53,0,0,0-.545.051.258.258,0,0,0-.117.039,2.653,2.653,0,0,1-1.11.351c-.386.07-.775.1-1.164.144a.412.412,0,0,1-.444-.2.759.759,0,0,1-.091-.68,12.857,12.857,0,0,0,.4-1.307,1.479,1.479,0,0,1,.256-.567,1.414,1.414,0,0,0,.239-1.088c-.073-.461-.066-.93-.1-1.4-.027-.41.053-.814.029-1.223a1.681,1.681,0,0,0-.069-.493.481.481,0,0,1-.03-.171,5.413,5.413,0,0,1-.014-1,.928.928,0,0,0-.014-.273,2.594,2.594,0,0,1,.006-.672,6.284,6.284,0,0,0,0-1.593,1.411,1.411,0,0,1,0-.472,2.47,2.47,0,0,0-.048-.72,4.117,4.117,0,0,1,.008-1.121.121.121,0,0,0,0-.024,4.062,4.062,0,0,0-.145-1.058.566.566,0,0,0-.129-.182,1.026,1.026,0,0,1-.1-1.2.7.7,0,0,0,.1-.228,1.256,1.256,0,0,1,.305-.5.7.7,0,0,1,.55-.2c.38,0,.76-.01,1.14.017a4.741,4.741,0,0,1,1.023.214c.438.131.866.3,1.293.462.514.2,1.018.416,1.517.647.138.064.216.2.341.284a2.5,2.5,0,0,1,.8.63,4.211,4.211,0,0,1,.544,1.064,1.581,1.581,0,0,0,.139.348,3.914,3.914,0,0,1,.286.693c.049.14.058.293.188.4.059.049.047.14.044.214a1.82,1.82,0,0,0,.134.733,6.266,6.266,0,0,1,.119.688,5.19,5.19,0,0,1,.062.769" transform="translate(-112.593 42.186)"/>
    </clipPath>
    <clipPath id="clip-path-21">
      <path id="path-19" data-name="path" class="cls-2" d="M129.847-38.209c0,.332.025.667-.006,1a7.461,7.461,0,0,1-.166,1.41.5.5,0,0,0,.484.658c.415.021.83.059,1.247.052.251,0,.489-.03.609-.3a.1.1,0,0,1,.032-.038c.155-.111.274-.345.508-.23a.842.842,0,0,1,.492.622,5.655,5.655,0,0,1,.006,1.17.6.6,0,0,1-.323.554.644.644,0,0,1-.854-.252c-.162-.314-.261-.373-.592-.266a4.216,4.216,0,0,1-.983.163.436.436,0,0,0-.451.53c.05.324,0,.647.036.97a2.634,2.634,0,0,1-.077.893,6.05,6.05,0,0,0-.061,1.644c.01.3,0,.6.005.9A1.726,1.726,0,0,0,130-27.9a.563.563,0,0,0,.377.226,2.668,2.668,0,0,0,1.231.111c.448-.094.914-.073,1.358-.209.223-.069.434-.169.661-.228.153-.039.191-.2.237-.332a.8.8,0,0,1,.182-.323c.343-.336.584-.248.83.123a3.264,3.264,0,0,1,.449,1.59c.006.075.028.148.034.222a.6.6,0,0,1-.529.723.894.894,0,0,1-.566-.014,2.638,2.638,0,0,0-.862-.1,4.092,4.092,0,0,0-.994.014.81.81,0,0,1-.347-.032,2.354,2.354,0,0,0-1.039-.043,4.038,4.038,0,0,1-.724.019,2.914,2.914,0,0,0-1.109.09,1.53,1.53,0,0,1-.393.064c-.232.022-.466.012-.7.028a.9.9,0,0,1-.57-.221.175.175,0,0,1-.069-.1c-.029-.218-.12-.44.016-.655.031-.049.047-.108.082-.154a1.6,1.6,0,0,0,.246-.854,2.593,2.593,0,0,0-.019-.87,2.565,2.565,0,0,1,.039-.6,6.049,6.049,0,0,0-.032-.85,2.118,2.118,0,0,1,.047-.746,3.916,3.916,0,0,0,.091-.869,7.9,7.9,0,0,1,.122-1.538,2.93,2.93,0,0,0,.02-.5,4.744,4.744,0,0,1,.118-1.014,3.8,3.8,0,0,0,.081-.944c-.02-.759.033-1.516.055-2.273a1.461,1.461,0,0,0-.135-.828.451.451,0,0,1-.052-.218,4.023,4.023,0,0,0-.2-1.1.847.847,0,0,1-.017-.224c-.009-.318.054-.631.075-.947a.432.432,0,0,1,.153-.356c.064-.046.062-.133.089-.2a.46.46,0,0,1,.431-.319,9.743,9.743,0,0,1,1.118-.107c.665.019,1.327.1,1.991.123.7.029,1.384.2,2.08.271a1.321,1.321,0,0,0,.224,0c.1-.008.2-.023.3-.035a.438.438,0,0,1,.272.006c.248.151.559.057.8.224a.309.309,0,0,1,.166.282c0,.084,0,.167,0,.25a.758.758,0,0,0,.07.39,1.235,1.235,0,0,1-.19,1.377,2.644,2.644,0,0,1-.63.6.764.764,0,0,1-.594.118c-.317-.059-.56-.146-.519-.541a.786.786,0,0,0-.057-.267.856.856,0,0,0-.79-.678,3.216,3.216,0,0,0-.767-.088c-.53.05-1.058.109-1.583.191-.049.008-.1.029-.146.034-.178.019-.236.143-.247.3a3.232,3.232,0,0,1-.047.422,3.073,3.073,0,0,1-.145.58,2.368,2.368,0,0,0-.121.69" transform="translate(-127.397 42.456)"/>
    </clipPath>
    <clipPath id="clip-path-23">
      <path id="path-21" data-name="path" class="cls-2" d="M115.474-63.691a2.473,2.473,0,0,0,.424.019c.456-.043.913-.076,1.369-.111a1.3,1.3,0,0,0,.614-.189.863.863,0,0,1,.4-.149.7.7,0,0,0,.347-.131,7.314,7.314,0,0,0,.632-.445,1.524,1.524,0,0,0,.571-1.249,3.223,3.223,0,0,1,.068-.817.732.732,0,0,0-.054-.464,1.869,1.869,0,0,0-.553-.873.429.429,0,0,1-.087-.09,2.308,2.308,0,0,0-1.132-.694,7.57,7.57,0,0,0-.96-.266,8.1,8.1,0,0,0-1.586-.172.884.884,0,0,0-.641.291,1.262,1.262,0,0,1-.137.146.52.52,0,0,0-.211.478c0,.348,0,.7-.023,1.044-.032.465.036.93-.017,1.394a.362.362,0,0,0,.005.1,6.255,6.255,0,0,1-.008,1.541.361.361,0,0,0,.049.288.84.84,0,0,0,.634.35c.1,0,.2,0,.3,0m.477,1.181a7.6,7.6,0,0,1-1.223-.039c-.235-.042-.3.017-.345.243a7.715,7.715,0,0,0-.118,1.86c.013.432.016.865.025,1.3.013.558.036,1.115.052,1.673a.73.73,0,0,0,.065.313.95.95,0,0,1,.076.391,1.02,1.02,0,0,0,.376.783.512.512,0,0,1,.152.65l-.018.047c-.153.355-.133.36-.506.345a.7.7,0,0,0-.2.013,1.553,1.553,0,0,1-.567.055c-.289-.035-.578.028-.869-.006-.215-.025-.429.036-.649.024a.478.478,0,0,1-.449-.3.918.918,0,0,1-.094-.485.411.411,0,0,1,.229-.379,1.218,1.218,0,0,0,.629-.825,4.45,4.45,0,0,0,.1-.836c.023-.282.05-.565.065-.845a11.148,11.148,0,0,0,.077-1.145,8.378,8.378,0,0,1,.033-1.3c.036-.348.015-.7.031-1.051a4.542,4.542,0,0,0-.078-1.138,3.659,3.659,0,0,1-.017-1,9.232,9.232,0,0,0,0-1.344,5.294,5.294,0,0,1,.072-1.617,5.616,5.616,0,0,0,.052-1.542,1.571,1.571,0,0,0-.05-.47c-.038-.1-.075-.208-.2-.24a.284.284,0,0,1-.15-.125c-.134-.18-.279-.353-.4-.541a.564.564,0,0,1,.365-.873l.707-.159a.327.327,0,0,1,.266.031.643.643,0,0,0,.435.079c.2-.017.4-.05.593-.075a2.468,2.468,0,0,1,.57-.033,3.742,3.742,0,0,0,.647-.023,7.971,7.971,0,0,1,1.248.035,2.457,2.457,0,0,1,.262.079,5.981,5.981,0,0,0,.889.122.984.984,0,0,1,.432.1,1.441,1.441,0,0,0,.234.084.766.766,0,0,1,.168.047,8.58,8.58,0,0,1,1.03.554,2.128,2.128,0,0,0,.47.28,1.4,1.4,0,0,1,.6.68c.167.306.253.645.421.951a2.2,2.2,0,0,1,.305,1.02,4.68,4.68,0,0,1-.243,1.442,5.618,5.618,0,0,1-.471,1.069,4.656,4.656,0,0,1-.633.8,1.69,1.69,0,0,1-.779.471,3.432,3.432,0,0,0-.4.21c-.292.141-.6.24-.9.367a3.438,3.438,0,0,1-.7.163,5.279,5.279,0,0,1-.819.1c-.266.009-.534,0-.8,0" transform="translate(-111.656 71.1)"/>
    </clipPath>
    <clipPath id="clip-path-25">
      <path id="path-23" data-name="path" class="cls-2" d="M163.225-69.985c.84.04,1.681.057,2.522.036a12.859,12.859,0,0,0,1.367-.038c.265-.035.529.055.8.033a4.67,4.67,0,0,1,.5.008,5.281,5.281,0,0,1,.848.042c.2.038.419-.031.622-.012a4.256,4.256,0,0,0,.743-.005,7.705,7.705,0,0,1,.947.033.782.782,0,0,1,.723.583.927.927,0,0,1,.05.582.42.42,0,0,0,.014.222.985.985,0,0,1-.081.7.713.713,0,0,1-.333.343,1.146,1.146,0,0,1-.58.128.612.612,0,0,1-.592-.515.853.853,0,0,0-.156-.334.519.519,0,0,0-.307-.192,4.343,4.343,0,0,0-1.608-.054.689.689,0,0,1-.273,0,.532.532,0,0,0-.43.073c-.1.051-.176.132-.274.173a.447.447,0,0,0-.28.408,5.431,5.431,0,0,0-.061,1.1,1.311,1.311,0,0,1-.031.419.884.884,0,0,0,.034.588.753.753,0,0,1,.031.4,1.282,1.282,0,0,0,.008.374,3.2,3.2,0,0,1-.069,1.039,9.583,9.583,0,0,0-.036,1.145,6.111,6.111,0,0,1,.01.848.24.24,0,0,0,0,.05c.061.638.04,1.281.129,1.916a.807.807,0,0,1,0,.224,2.755,2.755,0,0,0,.015.918,3.113,3.113,0,0,1,0,.772c-.021.32.064.63.063.948a.259.259,0,0,0,.042.142c.17.237.258.519.416.76a.863.863,0,0,0,.376.319c.276.116.423.371.644.546a.151.151,0,0,1,.04.162c0,.016-.009.032-.012.049-.113.471-.231.58-.713.623a5.91,5.91,0,0,1-.721.068.257.257,0,0,0-.146.024c-.314.233-.643.064-.955.017a2.533,2.533,0,0,0-1.013,0c-.068.017-.132.033-.187-.023a.307.307,0,0,0-.23-.077.157.157,0,0,1-.146-.082,1.013,1.013,0,0,1-.1-.834.406.406,0,0,1,.327-.246,2.7,2.7,0,0,0,.436-.11.688.688,0,0,0,.508-.687c-.008-.274-.049-.548-.059-.822-.015-.382-.079-.76-.105-1.141-.046-.67-.1-1.341-.1-2.012,0-.248-.014-.5-.021-.745a2.844,2.844,0,0,0-.053-.623,4.805,4.805,0,0,1-.043-.645c-.037-.314-.039-.632-.053-.948a8.429,8.429,0,0,1,.065-1.1,2.013,2.013,0,0,0,.014-.4,8.525,8.525,0,0,1-.052-1.338c.03-.571-.064-1.132-.043-1.7a.521.521,0,0,0-.463-.556,1.473,1.473,0,0,0-.713-.059c-.133.034-.276-.055-.42-.035a2.9,2.9,0,0,1-.52.024,1.623,1.623,0,0,1-.393-.049.616.616,0,0,0-.247-.023c-.236.027-.289.064-.317.3a2.923,2.923,0,0,1-.214.69.875.875,0,0,1-.829.448.348.348,0,0,1-.3-.268,5.448,5.448,0,0,1-.146-.836,4.4,4.4,0,0,1,0-1.2.338.338,0,0,1,.166-.248,1.474,1.474,0,0,1,.707-.251,6.636,6.636,0,0,1,1.27-.07" transform="translate(-161.043 69.994)"/>
    </clipPath>
    <clipPath id="clip-path-27">
      <path id="path-25" data-name="path" class="cls-2" d="M149.754-27.172c.009-.249.057-.5.078-.74a6.874,6.874,0,0,1,.179-1.006c.067-.284.1-.575.172-.857a1.485,1.485,0,0,0,.034-.4c-.008-.66-.005-1.319-.005-1.978,0-.391-.025-.785.012-1.173.023-.25-.012-.5.023-.746a2.273,2.273,0,0,0-.054-.6,5.82,5.82,0,0,1-.038-.874,7.963,7.963,0,0,0-.042-.847,2.456,2.456,0,0,0-.094-.381,4.532,4.532,0,0,1-.074-.991,10.607,10.607,0,0,0-.027-1.272c-.013-.094.043-.2.035-.294-.029-.332-.07-.662-.113-.993a.347.347,0,0,0-.066-.133c-.054-.084-.111-.166-.17-.247a1.044,1.044,0,0,1-.168-.992c.021-.064.04-.127.06-.191.154-.5.378-.626.94-.714a1.359,1.359,0,0,0,.531-.116.238.238,0,0,1,.218-.014c.154.064.307.129.458.2a.2.2,0,0,1,.1.14,1.778,1.778,0,0,1,.1.489,5.482,5.482,0,0,1,.044.7,3.043,3.043,0,0,0-.046.447c.006.207-.012.412-.007.62.007.289-.064.579-.058.868a5.92,5.92,0,0,0,.069,1.415.176.176,0,0,1,.014.073c-.09.439.078.879-.008,1.319a.81.81,0,0,0,0,.274.9.9,0,0,1-.029.393,2.17,2.17,0,0,0,0,.667,5.016,5.016,0,0,1-.016,1.147,1.707,1.707,0,0,0,0,.6,1.234,1.234,0,0,1,0,.472,1.95,1.95,0,0,0-.023.472,8.46,8.46,0,0,1-.069,1.172c-.035.338-.125.675-.146,1.01a1.791,1.791,0,0,0,.026.736.765.765,0,0,1,.032.247,1.9,1.9,0,0,0,.367.914.156.156,0,0,0,.121.08,1.749,1.749,0,0,0,.471.034,3.5,3.5,0,0,1,1,0,.586.586,0,0,0,.248.012,1.377,1.377,0,0,1,.567.011c.639.056,1.267.2,1.913.216a6.146,6.146,0,0,0,.819-.018.394.394,0,0,0,.349-.275,1.8,1.8,0,0,0,.095-.439.967.967,0,0,1,.118-.379.663.663,0,0,1,.636-.36c.216.008.434-.025.65-.018a.851.851,0,0,1,.774.43,1.874,1.874,0,0,1,.224,1c-.032.289-.032.58-.061.871a.439.439,0,0,1-.2.344,2.5,2.5,0,0,1-1.285.431,1.3,1.3,0,0,1-.248-.025,7.129,7.129,0,0,0-1.221.034c-.166.014-.333.024-.5.023a1.543,1.543,0,0,0-.445.032.957.957,0,0,1-.466-.061c-.3-.068-.611-.075-.915-.113a3.048,3.048,0,0,0-.4.039,2.734,2.734,0,0,0-.983.127.363.363,0,0,1-.271,0,.985.985,0,0,0-.591-.024,2.4,2.4,0,0,1-.421.032,3.556,3.556,0,0,0-.673.043,3.764,3.764,0,0,1-1.046-.055.6.6,0,0,1-.485-.59,2.08,2.08,0,0,1,0-.225" transform="translate(-149.378 42.744)"/>
    </clipPath>
    <clipPath id="clip-path-29">
      <path id="path-27" data-name="path" class="cls-2" d="M182.082-68.948a1.81,1.81,0,0,1-.013.474,7.891,7.891,0,0,0-.047,1.545c.008.183,0,.366,0,.548,0,.349-.032.7-.012,1.045a10.01,10.01,0,0,0,.045,1.246,2.5,2.5,0,0,1-.028.722,4.661,4.661,0,0,0-.025.474,2.575,2.575,0,0,1-.061.619,3.154,3.154,0,0,0,.028,1.044c.027.332.032.664.058,1a12.953,12.953,0,0,0,.131,1.488,2.64,2.64,0,0,0,.076.264c.014.048.053.1.044.141a1.933,1.933,0,0,0,.141.98c.153.44.223.9.4,1.333a1.255,1.255,0,0,0,.389.481.647.647,0,0,1,.116.91.328.328,0,0,1-.385.159,2.509,2.509,0,0,0-.94-.009c-.255.027-.516.031-.769.071a6.3,6.3,0,0,1-1.091-.058c-.186,0-.26-.14-.307-.284a1.076,1.076,0,0,1-.051-.4.479.479,0,0,1,.29-.459,1.259,1.259,0,0,0,.685-.951,8.14,8.14,0,0,0,.172-2.287.12.12,0,0,0,0-.025,7.205,7.205,0,0,1-.18-1.561,2.22,2.22,0,0,1,.008-.672.55.55,0,0,0,.01-.2,14.649,14.649,0,0,1-.087-1.722,1.263,1.263,0,0,0-.06-.444.527.527,0,0,1-.033-.171c-.013-.743-.2-1.468-.24-2.208-.012-.232-.013-.463-.038-.7a10.1,10.1,0,0,1-.086-1.016c0-.459,0-.918.013-1.377a.74.74,0,0,1,.394-.677.921.921,0,0,0,.192-.116.253.253,0,0,1,.32-.039c.125.068.263-.018.392.034.076.031.165.028.243.055a.421.421,0,0,1,.306.386c.009.117,0,.234,0,.351" transform="translate(-179.779 69.814)"/>
    </clipPath>
    <clipPath id="clip-path-31">
      <path id="path-29" data-name="path" class="cls-2" d="M56.008-58.289A14.538,14.538,0,0,1,52.1-47.922a13.651,13.651,0,0,1-9.614,4.737,14.291,14.291,0,0,1-10.354-3.632,14.059,14.059,0,0,1-4.478-9.9,13.955,13.955,0,0,1,3.219-10.33A14.621,14.621,0,0,1,40.9-71.809a15.073,15.073,0,0,1,10.637,3.754,13.736,13.736,0,0,1,4.469,9.765" transform="translate(-27.626 71.83)"/>
    </clipPath>
    <clipPath id="clip-path-33">
      <path id="path-31" data-name="path" class="cls-2" d="M88.919-58.9c.035.343-.868.747-2.355,1.126a42.6,42.6,0,0,1-5.866.967c-2.305.236-4.8.372-6.152.535-1.669.125-2.345-.5-2.323-.92.018-.344.868-.748,2.355-1.127a42.578,42.578,0,0,1,5.866-.966,57.63,57.63,0,0,1,6.245-.639c1.534.069,2.195.682,2.23,1.024" transform="translate(-72.223 59.935)"/>
    </clipPath>
    <clipPath id="clip-path-35">
      <path id="path-33" data-name="path" class="cls-2" d="M31-29.986c.266.22-.094,1.146-.892,2.464A42.726,42.726,0,0,1,26.589-22.7c-1.483,1.792-3.173,3.646-4.025,4.713-1.106,1.264-2.027,1.3-2.31.977-.229-.259.094-1.146.892-2.464A42.738,42.738,0,0,1,24.661-24.3a57.967,57.967,0,0,1,4.018-4.853c1.146-1.03,2.05-1.057,2.316-.837" transform="translate(-20.182 30.097)"/>
    </clipPath>
    <clipPath id="clip-path-37">
      <path id="path-35" data-name="path" class="cls-2" d="M63.09-31.554c.269-.2.382-.021,2.031,1.483a45.5,45.5,0,0,1,4.417,4.739,21.433,21.433,0,0,1,2.3,3.449,8.979,8.979,0,0,1,1.307,2.675c.02.359-.69.713-.895.745-.33.053-.953-.259-2.006-1.315a52.734,52.734,0,0,1-3.757-4.856,32.97,32.97,0,0,1-2.75-4.833c-.7-1.317-.917-1.889-.649-2.087" transform="translate(-62.978 31.621)"/>
    </clipPath>
    <clipPath id="clip-path-39">
      <path id="path-37" data-name="path" class="cls-2" d="M19.513-40.685c.14.321-.068.4-1.992,1.726a47.672,47.672,0,0,1-5.881,3.4,22.462,22.462,0,0,1-4.066,1.54c-.781.21-2.234.846-3.041.706-.372-.065-.566-.873-.551-1.089.024-.349.489-.913,1.816-1.74a55.36,55.36,0,0,1,5.845-2.7,34.541,34.541,0,0,1,5.585-1.673c1.51-.407,2.145-.493,2.285-.172" transform="translate(-3.981 40.881)"/>
    </clipPath>
    <clipPath id="clip-path-41">
      <path id="path-39" data-name="path" class="cls-2" d="M49.7-25.683c.35-.018.346.2.917,2.471a47.6,47.6,0,0,1,1.119,6.7,22.409,22.409,0,0,1,.016,4.347c-.077.8.009,2.388-.4,3.1-.191.325-1.016.224-1.214.133-.319-.145-.683-.777-.993-2.31a55.486,55.486,0,0,1-.474-6.419,34.583,34.583,0,0,1,.393-5.816c.149-1.556.291-2.182.641-2.2" transform="translate(-48.646 25.684)"/>
    </clipPath>
    <clipPath id="clip-path-43">
      <path id="path-41" data-name="path" class="cls-2" d="M17.36-55.537c-.024.343-.239.313-2.517.6a46.782,46.782,0,0,1-6.66.288,29.385,29.385,0,0,1-5-.671A4.059,4.059,0,0,1,1.15-56.337c-.18-.172-1.2-.646-1.148-.853.076-.336,1.831-.5,3.361-.621a37.579,37.579,0,0,1,5.33.211,48.281,48.281,0,0,1,6.6,1.174c1.5.332,2.091.544,2.067.887" transform="translate(0 57.85)"/>
    </clipPath>
    <clipPath id="clip-path-45">
      <path id="path-43" data-name="path" class="cls-2" d="M71.5-42.087c.109-.316.841-.158,3.051.151A38.856,38.856,0,0,1,80.337-40.6a28.568,28.568,0,0,1,4.521,1.892c1.367.714,2.062,1.529,1.869,1.894-.157.3-1.2.671-2.665.4a36.381,36.381,0,0,1-4.948-1.544,50.831,50.831,0,0,1-6.048-2.713c-1.323-.69-1.674-1.1-1.565-1.411" transform="translate(-71.482 42.26)"/>
    </clipPath>
    <clipPath id="clip-path-47">
      <path id="path-45" data-name="path" class="cls-2" d="M28.148-95.053c.3-.148,1.074.425,2.43,2.2a57,57,0,0,1,2.677,5.48,28.143,28.143,0,0,1,1.849,4.63c.471,1.469.833,2.305.438,2.429-.319.1-1.325-.364-2.174-1.59a35.03,35.03,0,0,1-2.574-4.581A57.282,57.282,0,0,1,28.11-92.4c-.456-1.42-.262-2.5.038-2.649" transform="translate(-27.839 95.075)"/>
    </clipPath>
    <clipPath id="clip-path-49">
      <path id="path-47" data-name="path" class="cls-2" d="M55.445-98.147H51.673v15.928h3.771V-98.147Zm0,0" transform="translate(-51.673 98.147)"/>
    </clipPath>
    <clipPath id="clip-path-51">
      <rect id="rectangle-3" data-name="rectangle" class="cls-1" width="4.737" height="16.919"/>
    </clipPath>
    <clipPath id="clip-path-52">
      <path id="path-49" data-name="path" class="cls-2" d="M52.058-82.223c-.33-.053-.3-.8-.385-3.03a38.72,38.72,0,0,1,.3-5.929,28.564,28.564,0,0,1,1.073-4.782c.464-1.471,1.144-2.3,1.538-2.171.318.1.871,1.063.856,2.554a36.521,36.521,0,0,1-.656,5.142,50.836,50.836,0,0,1-1.614,6.429c-.448,1.423-.786,1.84-1.116,1.787" transform="translate(-51.673 98.147)"/>
    </clipPath>
    <clipPath id="clip-path-53">
      <path id="path-50" data-name="path" class="cls-1" d="M51-82.081h4.737V-99H51Z" transform="translate(-51 99)"/>
    </clipPath>
    <clipPath id="clip-path-54">
      <path id="path-51" data-name="path" class="cls-2" d="M77.6-86.782c.122.1.533.41-.357,1.7A43.466,43.466,0,0,1,73.378-80.4c-1.615,1.729-3.4,3.515-4.375,4.543-1.2,1.217-2.7,1.793-2.965,1.451-.217-.277-.058-1.03.832-2.321a44.351,44.351,0,0,1,3.9-4.713A46.607,46.607,0,0,1,75.689-85.8c1.227-.976,1.736-1.125,1.91-.986" transform="translate(-65.952 86.826)"/>
    </clipPath>
    <clipPath id="clip-path-56">
      <path id="path-53" data-name="path" class="cls-2" d="M22.993-70.533c-.195.272-.321.554-1.649-.126a41.331,41.331,0,0,1-4.9-3.065c-1.832-1.31-3.738-2.814-4.827-3.564-1.3-.981-2.024-2.321-1.735-2.616.234-.239,1.34-.3,2.667.376a36.44,36.44,0,0,1,4.308,2.884,55.547,55.547,0,0,1,5.255,4.477c1.073,1.036,1.071,1.364.876,1.636" transform="translate(-9.824 80.073)"/>
    </clipPath>
  </defs>
  <g id="group" transform="translate(11773 2018)">
    <g id="group-2" data-name="group" class="cls-3">
      <g id="group-3" data-name="group" class="cls-4" transform="translate(123.676 37.96)">
        <g id="group-4" data-name="group" class="cls-5" transform="translate(-123.676 -37.96)">
          <path id="path-55" data-name="path" class="cls-6" d="M177.745-47.909h18.507v23.652H177.745Z" transform="translate(-57.453 82.486)"/>
        </g>
      </g>
      <g id="group-5" data-name="group" class="cls-7" transform="translate(112.648 37.766)">
        <g id="group-6" data-name="group" class="cls-5" transform="translate(-112.648 -37.766)">
          <path id="path-56" data-name="path" class="cls-6" d="M161.45-48.2h17.112V-24.73H161.45Z" transform="translate(-52.186 82.579)"/>
        </g>
      </g>
      <g id="group-7" data-name="group" class="cls-8" transform="translate(96.69 19.52)">
        <g id="group-8" data-name="group" class="cls-5" transform="translate(-96.69 -19.52)">
          <path id="path-57" data-name="path" class="cls-6" d="M137.871-75.157h17.981v22.581H137.871Z" transform="translate(-44.564 91.293)"/>
        </g>
      </g>
      <g id="group-9" data-name="group" class="cls-9" transform="translate(126.502 19.52)">
        <g id="group-10" data-name="group" class="cls-5" transform="translate(-126.502 -19.52)">
          <path id="path-58" data-name="path" class="cls-6" d="M181.922-75.157H199.9v22.581H181.922Z" transform="translate(-58.803 91.293)"/>
        </g>
      </g>
      <g id="group-11" data-name="group" class="cls-10" transform="translate(139.004 19.594)">
        <g id="group-12" data-name="group" class="cls-5" transform="translate(-139.004 -19.594)">
          <path id="path-59" data-name="path" class="cls-6" d="M200.394-75.047h17.7v22.565h-17.7Z" transform="translate(-64.774 91.258)"/>
        </g>
      </g>
      <g id="group-13" data-name="group" class="cls-11" transform="translate(151.192 19.212)">
        <g id="group-14" data-name="group" class="cls-5" transform="translate(-151.192 -19.212)">
          <g id="group-15" data-name="group" class="cls-12" transform="translate(150.919 18.949)">
            <g id="group-16" data-name="group" class="cls-13" transform="translate(0.273 0.262)">
              <g id="group-17" data-name="group" class="cls-14" transform="translate(-0.273 -0.262)">
                <path id="path-60" data-name="path" class="cls-6" d="M218.4-75.612h16.849v23.531H218.4Z" transform="translate(-221.514 72.491)"/>
              </g>
            </g>
          </g>
        </g>
      </g>
      <g id="group-18" data-name="group" class="cls-15" transform="translate(86.851 19.458)">
        <g id="group-19" data-name="group" class="cls-5" transform="translate(-86.851 -19.458)">
          <path id="path-61" data-name="path" class="cls-6" d="M123.332-75.249h16.449v22.557H123.332Z" transform="translate(-39.865 91.323)"/>
        </g>
      </g>
      <g id="group-20" data-name="group" class="cls-16" transform="translate(76.199 38.45)">
        <g id="group-21" data-name="group" class="cls-5" transform="translate(-76.199 -38.45)">
          <path id="path-62" data-name="path" class="cls-6" d="M107.593-47.186h15.774v23.138H107.593Z" transform="translate(-34.777 82.252)"/>
        </g>
      </g>
      <g id="group-22" data-name="group" class="cls-17" transform="translate(86.218 38.267)">
        <g id="group-23" data-name="group" class="cls-5" transform="translate(-86.218 -38.267)">
          <path id="path-63" data-name="path" class="cls-6" d="M122.4-47.456h15.184v23.265H122.4Z" transform="translate(-39.563 82.339)"/>
        </g>
      </g>
      <g id="group-24" data-name="group" class="cls-18" transform="translate(75.565 18.882)">
        <g id="group-25" data-name="group" class="cls-5" transform="translate(-75.565 -18.882)">
          <path id="path-64" data-name="path" class="cls-6" d="M106.656-76.1h16.8v23.008h-16.8Z" transform="translate(-34.475 91.598)"/>
        </g>
      </g>
      <g id="group-26" data-name="group" class="cls-19" transform="translate(108.989 19.63)">
        <g id="group-27" data-name="group" class="cls-5" transform="translate(-108.989 -19.63)">
          <path id="path-65" data-name="path" class="cls-6" d="M156.043-74.994h18.116V-52.46H156.043Z" transform="translate(-50.438 91.24)"/>
        </g>
      </g>
      <g id="group-28" data-name="group" class="cls-20" transform="translate(101.094 38.072)">
        <g id="group-29" data-name="group" class="cls-5" transform="translate(-101.094 -38.072)">
          <path id="path-66" data-name="path" class="cls-6" d="M144.378-47.744h17.361v23.232H144.378Z" transform="translate(-46.668 82.432)"/>
        </g>
      </g>
      <g id="group-30" data-name="group" class="cls-21" transform="translate(121.669 19.752)">
        <g id="group-31" data-name="group" class="cls-5" transform="translate(-121.669 -19.752)">
          <path id="path-67" data-name="path" class="cls-6" d="M174.779-74.814h10.446v22.179H174.779Z" transform="translate(-56.494 91.182)"/>
        </g>
      </g>
      <g id="group-32" data-name="group" class="cls-22" transform="translate(18.696 18.388)">
        <g id="group-33" data-name="group" class="cls-5" transform="translate(-18.696 -18.388)">
          <path id="path-68" data-name="path" class="cls-23" d="M22.626-76.83H57.8v35.435H22.626Z" transform="translate(-7.314 91.834)"/>
        </g>
      </g>
      <g id="group-34" data-name="group" class="cls-24" transform="translate(48.878 26.438)">
        <g id="group-35" data-name="group" class="cls-5" transform="translate(-48.878 -26.438)">
          <path id="path-69" data-name="path" class="cls-23" d="M67.223-64.935H90.687v10.443H67.223Z" transform="translate(-21.729 87.989)"/>
        </g>
      </g>
      <g id="group-36" data-name="group" class="cls-25" transform="translate(13.658 46.632)">
        <g id="group-37" data-name="group" class="cls-5" transform="translate(-13.658 -46.632)">
          <path id="path-70" data-name="path" class="cls-23" d="M15.182-35.1H32.85v20.024H15.182Z" transform="translate(-4.907 78.344)"/>
        </g>
      </g>
      <g id="group-38" data-name="group" class="cls-26" transform="translate(42.621 45.6)">
        <g id="group-39" data-name="group" class="cls-5" transform="translate(-42.621 -45.6)">
          <path id="path-71" data-name="path" class="cls-23" d="M57.978-36.621H74.914v19.932H57.978Z" transform="translate(-18.74 78.837)"/>
        </g>
      </g>
      <g id="group-40" data-name="group" class="cls-27" transform="translate(2.694 39.333)">
        <g id="group-41" data-name="group" class="cls-5" transform="translate(-2.694 -39.333)">
          <path id="path-72" data-name="path" class="cls-23" d="M-1.019-45.881H21.315v14.354H-1.019Z" transform="translate(0.329 81.83)"/>
        </g>
      </g>
      <g id="group-42" data-name="group" class="cls-28" transform="translate(32.922 49.618)">
        <g id="group-43" data-name="group" class="cls-5" transform="translate(-32.922 -49.618)">
          <path id="path-73" data-name="path" class="cls-23" d="M43.646-30.684h9.975v23.6H43.646Z" transform="translate(-14.108 76.918)"/>
        </g>
      </g>
      <g id="group-44" data-name="group" class="cls-29" transform="translate(0 27.849)">
        <g id="group-45" data-name="group" class="cls-5" transform="translate(0 -27.849)">
          <path id="path-74" data-name="path" class="cls-23" d="M-5-62.85H19.128v10.01H-5Z" transform="translate(1.616 87.315)"/>
        </g>
      </g>
      <g id="group-46" data-name="group" class="cls-30" transform="translate(48.376 38.4)">
        <g id="group-47" data-name="group" class="cls-5" transform="translate(-48.376 -38.4)">
          <path id="path-75" data-name="path" class="cls-23" d="M66.482-47.26H88.526v12.7H66.482Z" transform="translate(-21.489 82.276)"/>
        </g>
      </g>
      <g id="group-48" data-name="group" class="cls-31" transform="translate(18.841 2.656)">
        <g id="group-49" data-name="group" class="cls-5" transform="translate(-18.841 -2.656)">
          <path id="path-76" data-name="path" class="cls-23" d="M22.839-100.075H37.478v21.538H22.839Z" transform="translate(-7.382 99.347)"/>
        </g>
      </g>
      <g id="group-50" data-name="group" class="cls-32" transform="translate(34.971 0.578)">
        <g id="group-51" data-name="group" class="cls-5" transform="translate(-34.971 -0.578)">
          <g id="group-52" data-name="group" class="cls-33" transform="translate(34.515)">
            <g id="group-53" data-name="group" class="cls-34" transform="translate(0.456 0.577)">
              <g id="group-54" data-name="group" class="cls-35" transform="translate(-0.456 -0.577)">
                <path id="path-77" data-name="path" class="cls-23" d="M46.673-103.147H57.212v22.7H46.673Z" transform="translate(-49.601 100.34)"/>
              </g>
            </g>
          </g>
        </g>
      </g>
      <g id="group-55" data-name="group" class="cls-36" transform="translate(44.634 8.239)">
        <g id="group-56" data-name="group" class="cls-5" transform="translate(-44.634 -8.239)">
          <path id="path-78" data-name="path" class="cls-23" d="M60.952-91.826H79.568v19.287H60.952Z" transform="translate(-19.702 96.681)"/>
        </g>
      </g>
      <g id="group-57" data-name="group" class="cls-37" transform="translate(6.649 12.809)">
        <g id="group-58" data-name="group" class="cls-5" transform="translate(-6.649 -12.809)">
          <path id="path-79" data-name="path" class="cls-23" d="M4.824-85.073H24.86v16.6H4.824Z" transform="translate(-1.559 94.498)"/>
        </g>
      </g>
    </g>
  </g>
</svg>
