<svg xmlns="http://www.w3.org/2000/svg" viewBox="11821.873 1367.568 275.126 108.856">
  <defs>
    <style>
      .cls-1 {
        fill: #ffd800;
      }

      .cls-2 {
        fill: #fff;
      }
    </style>
  </defs>
  <g id="Group_6407" data-name="Group 6407" transform="translate(11821.873 1367.568)">
    <g id="Group_6399" data-name="Group 6399" transform="translate(58.428 77.713)">
      <g id="Group_6398" data-name="Group 6398">
        <path id="Path_3010" data-name="Path 3010" class="cls-1" d="M47.471,54.4h16l-1,4.714H51.757l-1.714,7.857h10l-1,4.714h-10L46.186,85.4H40.9Z" transform="translate(-40.9 -54.4)"/>
        <path id="Path_3011" data-name="Path 3011" class="cls-1" d="M60.714,77.543,57.429,85.4H52l13.286-31h7.286l.571,31H67.857V77.543Zm7.143-4.571c0-5.857,0-11.286.143-14.286h-.143c-.857,2.857-3,8.143-5.286,14.286Z" transform="translate(-36.143 -54.4)"/>
        <path id="Path_3012" data-name="Path 3012" class="cls-1" d="M71.1,85.4l-1-31h5.286V67.828c0,4.143,0,8.571-.143,11.714h.143c1-2.857,2.857-7.571,4.714-11.714L85.957,54.4h5.429L77.1,85.4Z" transform="translate(-28.386 -54.4)"/>
        <path id="Path_3013" data-name="Path 3013" class="cls-1" d="M100.585,71.543h-10l-1.857,9.286h11.714l-1.714,4.714H82.3L89.014,54.4h15.714l-1,4.714H93.3l-1.571,7.714h10Z" transform="translate(-23.158 -54.4)"/>
        <path id="Path_3014" data-name="Path 3014" class="cls-1" d="M102.971,54.4H108.4l-5.571,26.285H113.4L111.971,85.4H96.4Z" transform="translate(-17.115 -54.4)"/>
        <path id="Path_3015" data-name="Path 3015" class="cls-1" d="M117.714,77.543,114.429,85.4H109l13.286-31h7.286l.571,31h-5.286V77.543ZM125,72.971c0-5.857,0-11.286.143-14.286H125c-.857,2.857-3,8.143-5.286,14.286Z" transform="translate(-11.716 -54.4)"/>
      </g>
    </g>
    <g id="Group_274_1_">
      <g id="Group_271_1_">
        <path id="Path_426_1_" class="cls-1" d="M27.714,78.856H0L18.285,50.714H.714L31.714,11h5.428L26.428,38.285H39.285Z" transform="translate(0 4.714)"/>
        <path id="Path_427_1_" class="cls-1" d="M35.585,16.571H16.3L34.871,0Z" transform="translate(6.985)"/>
      </g>
      <g id="Group_266_1_" transform="translate(58.559 30.16)">
        <path id="Path_428_1_" class="cls-2" d="M9.1,22.857c-.714,3.286-.571,4.857.571,4.857s1.571-1,1.714-2.429c.429-2.143-.429-3.571-3.143-6C4.385,16,2.385,13.571,3.528,8c1-4.286,3.857-8,10.428-8C21.242,0,24.528,3.571,23.1,10.714H14.814c.571-3.143.429-4.429-.571-4.429-.857,0-1.286.429-1.571,2-.286,1.714.286,2.571,3.143,5,4.714,4.143,6.286,7,5.143,12.571C19.814,31,16.528,34,9.528,34c-7.857,0-10.571-4.429-9-11.286l8.571.143Z" transform="translate(-0.101)"/>
        <path id="Path_429_1_" class="cls-2" d="M23.529,7.4H18.243l1.571-7H39.671L38.1,7.4H32.957L27.528,33.257H18.1Z" transform="translate(7.612 0.171)"/>
        <path id="Path_430_1_" class="cls-2" d="M39.871,26.828l-1.857,6.428H28.3L40.014.4h14L51.871,33.257H42.3l.714-6.428Zm3.857-7c.714-4,1.429-9.857,1.857-12.286H45.3c-.714,2.857-2,8.143-3,12.286Z" transform="translate(11.984 0.171)"/>
        <path id="Path_431_1_" class="cls-2" d="M59,20.114,56.143,33.257H47L54,.4H65c7,0,9.571,3.857,8.428,9.857-.857,4-2.857,6-5.571,6.714,2.429,1.286,3.143,3.571,2.286,7.571a84.408,84.408,0,0,0-1.571,8.714H59.286c.429-3.429,1-6.714,1.714-10,.571-2.429.143-3-2-3.143Zm1.429-6.286h.714c1.571,0,2.429-.429,2.857-3.286s.143-3.714-1.571-3.714H62Z" transform="translate(19.998 0.171)"/>
        <path id="Path_432_1_" class="cls-2" d="M72.729,7.4H67.443l1.571-7H88.871L87.3,7.4H82.157L76.728,33.257H67.3Z" transform="translate(28.697 0.171)"/>
        <path id="Path_433_1_" class="cls-2" d="M95.547.4,90.4,24.543c-.286,1.571-.143,2.571,1,2.571s1.571-1,1.857-2.571L98.4.4h9.571l-5,23.285C101.4,31.257,97.832,33.828,90.69,33.828c-7.286,0-11.286-2.714-9.571-10.857L85.975.4Z" transform="translate(34.45 0.171)"/>
        <path id="Path_434_1_" class="cls-2" d="M105.2.4h9.857c7.286,0,10.571,4.286,9,12-1.571,7.571-5.714,9.714-12.286,9.714h-1.857l-2.429,11.143H98.2Zm6,15h.857c1.857,0,2.286-1.143,2.857-4.429.714-3.429.429-4.143-1.143-4.143h-.714Z" transform="translate(41.939 0.171)"/>
        <path id="Path_435_1_" class="cls-2" d="M137.928.4l-7,32.857H121.5L128.5.4h9.428Z" transform="translate(51.925 0.171)"/>
        <path id="Path_436_1_" class="cls-2" d="M131.5,33.257,138.5.4h10V18.114h.286c.571-4.714,1.714-12.143,2.571-15.857L151.785.4h8.571l-7,32.857H143.071c.429-14.286.429-17.571.429-18.714h-.429c-.571,3.857-2,12.428-2.857,16.857l-.429,1.857Z" transform="translate(56.21 0.171)"/>
      </g>
    </g>
  </g>
</svg>
