<svg xmlns="http://www.w3.org/2000/svg" viewBox="11850 308.47 227.476 158.904">
  <defs>
    <style>
      .cls-1 {
        fill: #2e3192;
      }

      .cls-2 {
        fill: #fcaf17;
      }

      .cls-3 {
        fill: #f26522;
      }
    </style>
  </defs>
  <g id="_1sti-VaiNaWeb-Logo" data-name="1sti-VaiNaWeb-Logo" transform="translate(11850 308.47)">
    <g id="Group_6383" data-name="Group 6383" transform="translate(0 0)">
      <path id="Path_2985" data-name="Path 2985" class="cls-1" d="M524.9,359.148a11.424,11.424,0,1,0-11.4-11.4A11.363,11.363,0,0,0,524.9,359.148Z" transform="translate(-428.601 -296.609)"/>
      <path id="Path_2986" data-name="Path 2986" class="cls-1" d="M595.256,479.9a11.523,11.523,0,0,0-10.556,7.037h21.018A11.516,11.516,0,0,0,595.256,479.9Z" transform="translate(-466.397 -372.838)"/>
      <path id="Path_2987" data-name="Path 2987" class="cls-1" d="M723.547,502.848a11.424,11.424,0,1,0-11.447-11.4A11.363,11.363,0,0,0,723.547,502.848Z" transform="translate(-534.026 -372.891)"/>
      <path id="Path_2988" data-name="Path 2988" class="cls-1" d="M762.905,347.7a6.029,6.029,0,1,0,6.052,6.052A6,6,0,0,0,762.905,347.7Z" transform="translate(-557.808 -302.661)"/>
      <path id="Path_2989" data-name="Path 2989" class="cls-1" d="M486.593,280.553a9.517,9.517,0,0,0-.657-3.472A17.405,17.405,0,1,0,453.7,264.414c-.235,0-.469-.047-.7-.047H440.24a9.737,9.737,0,0,0-8.3,4.645c-1.032-.094-2.064-.141-3.143-.141A33.805,33.805,0,0,0,409.6,274.83a11.778,11.778,0,0,0-1.5-1.173l-11.025-6.8a9.736,9.736,0,0,0-13.418,3.19l-11.025,17.828-11.025-17.828a9.736,9.736,0,0,0-13.418-3.19l-11.025,6.8a9.712,9.712,0,0,0-3.143,13.418l30.167,48.792-8.586,3.847a9.808,9.808,0,0,0-4.973,12.855l21.722,49.449a9.7,9.7,0,0,0,8.914,5.818h0a9.692,9.692,0,0,0,8.914-5.864l6.944-15.9,6.944,15.9a9.741,9.741,0,0,0,8.914,5.865h0a9.724,9.724,0,0,0,8.914-5.818l6.8-15.529A33.981,33.981,0,0,0,461.164,410.6h1.924a9.751,9.751,0,0,0,9.758-9.759v-12.48h6.287a9.65,9.65,0,0,0,2.768,5.958l8.867,8.961a10.017,10.017,0,0,0,6.9,2.909h0a9.768,9.768,0,0,0,6.9-2.862l2.487-2.487a33.441,33.441,0,0,0,14.872,3.425,33.944,33.944,0,1,0,0-67.887c-.563,0-1.126,0-1.689.047v-4.5a9.993,9.993,0,0,0,2.862-.563,9.762,9.762,0,0,0,6.287-7.553,22.835,22.835,0,0,0,7.835,1.548,9.754,9.754,0,0,0,6.334,2.346h6.709a9.751,9.751,0,0,0,9.758-9.758V287.778a9.751,9.751,0,0,0-9.758-9.758h-6.709a9.583,9.583,0,0,0-6.381,2.393,21.865,21.865,0,0,0-11.213,3.237,9.869,9.869,0,0,0-6.193-2.205h-6.709a9.888,9.888,0,0,0-4.832,1.267l-4.457-5.348a9.633,9.633,0,0,0-7.507-3.519,10.346,10.346,0,0,0-3.331.563,9.787,9.787,0,0,0-6.427,9.2Z" transform="translate(-332.54 -251.7)"/>
    </g>
    <g id="Group_6387" data-name="Group 6387" transform="translate(9.787 9.712)">
      <g id="Group_6384" data-name="Group 6384" transform="translate(0 0)">
        <path id="Path_2990" data-name="Path 2990" class="cls-2" d="M383.754,333.046,403.084,301.8l11.025,6.8-30.354,49.074L353.4,308.6l11.025-6.8Z" transform="translate(-353.4 -288.007)"/>
        <path id="Path_2991" data-name="Path 2991" class="cls-2" d="M534.67,299.5v57.331H521.909v-7.413a22.751,22.751,0,0,1-11.447,3,24.185,24.185,0,0,1,0-48.37,22.624,22.624,0,0,1,11.447,3v-7.506H534.67Zm-35.609,28.712a11.424,11.424,0,1,0,11.4-11.447A11.324,11.324,0,0,0,499.061,328.212Z" transform="translate(-423.949 -286.786)"/>
        <path id="Path_2992" data-name="Path 2992" class="cls-2" d="M617.947,287.695a7.647,7.647,0,1,1,7.647-7.647A7.619,7.619,0,0,1,617.947,287.695Zm6.333,48.37H611.52v-44.57h12.761Z" transform="translate(-489.773 -272.4)"/>
      </g>
      <g id="Group_6386" data-name="Group 6386" transform="translate(17.218 69.107)">
        <g id="Group_6385" data-name="Group 6385">
          <path id="Path_2993" data-name="Path 2993" class="cls-2" d="M411.869,456.013l15.9-36.313,15.9,36.313,10.228-23.364,11.448,5.114-21.722,49.449-15.9-36.313-15.9,36.313L390.1,437.763l11.447-5.114Z" transform="translate(-390.1 -419.7)"/>
          <path id="Path_2994" data-name="Path 2994" class="cls-2" d="M579.662,494.783h1.923v12.667h-1.923A24.127,24.127,0,0,1,555.5,483.289v-6.427a24.185,24.185,0,0,1,48.37,0v8.351H568.4A11.592,11.592,0,0,0,579.662,494.783Zm.094-29.322A11.523,11.523,0,0,0,569.2,472.5h21.018A11.516,11.516,0,0,0,579.755,465.461Z" transform="translate(-477.901 -437.218)"/>
          <path id="Path_2995" data-name="Path 2995" class="cls-2" d="M699.076,436.875a24.185,24.185,0,1,1-16.139,42.177l-8.07,8.116L666,478.208l8.867-8.867V422.8h12.761v17.03A23.078,23.078,0,0,1,699.076,436.875ZM687.628,461.13a11.447,11.447,0,1,0,11.447-11.447A11.393,11.393,0,0,0,687.628,461.13Z" transform="translate(-536.559 -421.346)"/>
        </g>
      </g>
    </g>
    <g id="Group_6388" data-name="Group 6388" transform="translate(163.858 31.715)">
      <path id="Path_2996" data-name="Path 2996" class="cls-3" d="M705.3,358.006l-16.8-20.268v12.62H681.8V319.3l16.8,20.268v-12.62H705.3Z" transform="translate(-681.8 -319.3)"/>
      <path id="Path_2997" data-name="Path 2997" class="cls-3" d="M768.075,328.247v30.167h-6.709V354.52a12.342,12.342,0,0,1-6.052,1.548,12.738,12.738,0,0,1,0-25.475,12.342,12.342,0,0,1,6.052,1.548V328.2h6.709ZM749.356,343.4a6.029,6.029,0,1,0,6.005-6.052A5.987,5.987,0,0,0,749.356,343.4Z" transform="translate(-714.075 -324.025)"/>
    </g>
  </g>
</svg>
